<svg xmlns="http://www.w3.org/2000/svg" viewBox="0 0 256 256" role="img" aria-label="Logo họ Trần Đức">
  <defs>
    <linearGradient id="paper" x1="0" x2="1" y1="0" y2="1">
      <stop offset="0%" stop-color="#fbf2de"/>
      <stop offset="100%" stop-color="#ecd8aa"/>
    </linearGradient>
    <linearGradient id="seal" x1="0" x2="0" y1="0" y2="1">
      <stop offset="0%" stop-color="#a12a22"/>
      <stop offset="100%" stop-color="#6f1717"/>
    </linearGradient>
  </defs>

  <rect x="8" y="8" width="240" height="240" rx="56" fill="url(#paper)"/>
  <rect x="20" y="20" width="216" height="216" rx="48" fill="none" stroke="#b4882f" stroke-opacity=".32" stroke-width="2.5"/>

  <circle cx="128" cy="128" r="74" fill="url(#seal)"/>
  <circle cx="128" cy="128" r="61" fill="none" stroke="#f0d397" stroke-width="4.5"/>
  <circle cx="128" cy="128" r="52" fill="none" stroke="#b4882f" stroke-opacity=".85" stroke-width="1.8"/>

  <path d="M128 168V110" stroke="#f6e6bd" stroke-width="9" stroke-linecap="round"/>
  <path d="M128 122C128 104 110 92 92 92" stroke="#f6e6bd" stroke-width="7" stroke-linecap="round" fill="none"/>
  <path d="M128 134C128 116 146 100 164 100" stroke="#f6e6bd" stroke-width="7" stroke-linecap="round" fill="none"/>
  <path d="M128 146C128 131 112 121 100 121" stroke="#f6e6bd" stroke-width="5.8" stroke-linecap="round" fill="none"/>
  <path d="M128 154C128 141 144 132 156 132" stroke="#f6e6bd" stroke-width="5.8" stroke-linecap="round" fill="none"/>

  <circle cx="92" cy="92" r="11" fill="#f4d488"/>
  <circle cx="164" cy="100" r="11" fill="#f4d488"/>
  <circle cx="100" cy="121" r="8.5" fill="#f4d488"/>
  <circle cx="156" cy="132" r="8.5" fill="#f4d488"/>
  <circle cx="128" cy="86" r="12" fill="#f4d488"/>

  <path d="M104 182H152" stroke="#f0d397" stroke-width="4" stroke-linecap="round" opacity=".9"/>
  <path d="M92 193H164" stroke="#b4882f" stroke-width="2.4" stroke-linecap="round" opacity=".9"/>
</svg>
